<?xml version="1.0" standalone="no"?><!DOCTYPE svg PUBLIC "-//W3C//DTD SVG 1.1//EN" "http://www.w3.org/Graphics/SVG/1.1/DTD/svg11.dtd"><svg width="100%" height="100%" viewBox="0 0 2550 3300" version="1.1" xmlns="http://www.w3.org/2000/svg" xmlns:xlink="http://www.w3.org/1999/xlink" xml:space="preserve" style="fill-rule:evenodd;clip-rule:evenodd;stroke-linejoin:round;stroke-miterlimit:1.41421;"><rect x="-234.192" y="-152.814" width="3177.76" height="3614.55" style="fill:#fff;stroke-width:14.58px;stroke:#000;"/><path d="M630.852,1719.32c-28.488,0 -52.67,-9.607 -72.546,-28.82c-20.207,-18.882 -30.311,-41.905 -30.311,-69.068l19.876,0c0,21.863 8.116,40.579 24.348,56.149c16.232,15.569 35.776,23.354 58.633,23.354c24.845,0 46.212,-6.626 64.1,-19.876c17.557,-13.251 26.335,-29.317 26.335,-48.199c0,-16.232 -7.785,-29.814 -23.354,-40.745c-15.238,-10.932 -35.776,-17.557 -61.615,-19.876c-31.47,-2.65 -56.646,-11.594 -75.528,-26.832c-18.882,-15.238 -28.323,-33.955 -28.323,-56.149c0,-21.864 9.607,-40.58 28.82,-56.149c19.213,-15.57 42.402,-23.354 69.565,-23.354c29.152,0 54.162,8.115 75.031,24.347c20.539,16.232 30.808,35.777 30.808,58.634l-19.876,0c0,-17.557 -8.447,-32.629 -25.341,-45.217c-16.564,-12.588 -36.771,-18.882 -60.622,-18.882c-21.532,0 -40.082,5.962 -55.652,17.888c-15.238,11.594 -22.857,25.838 -22.857,42.733c0,16.563 7.95,30.476 23.851,41.739c16.232,11.263 37.598,18.054 64.099,20.372c30.477,2.651 54.99,11.429 73.541,26.336c18.219,14.907 27.329,33.292 27.329,55.155c0,23.851 -10.766,44.224 -32.298,61.118c-21.532,16.895 -47.536,25.342 -78.013,25.342Z" style="fill:#34495e;fill-rule:nonzero;"/><rect x="785.387" y="1417.2" width="19.876" height="294.658" style="fill:#34495e;fill-rule:nonzero;"/><path d="M991.101,1719.32c-38.427,0 -71.387,-15.073 -98.882,-45.218c-27.164,-30.145 -40.745,-66.583 -40.745,-109.316c0,-42.733 13.581,-79.338 40.745,-109.814c27.495,-30.145 60.455,-45.217 98.882,-45.217c29.151,0 54.824,8.612 77.018,25.838c22.195,16.894 35.611,38.427 40.249,64.596l-19.876,0c-3.644,-20.538 -14.741,-37.598 -33.292,-51.18c-18.219,-13.582 -39.586,-20.372 -64.099,-20.372c-33.126,0 -61.284,13.25 -84.472,39.751c-23.52,26.832 -35.28,58.965 -35.28,96.398c0,37.432 11.76,69.565 35.28,96.397c23.188,26.501 51.346,39.752 84.472,39.752c28.157,0 52.174,-10.766 72.05,-32.298c19.875,-21.201 29.813,-47.04 29.813,-77.516l0,-7.453l-101.863,0l0,-18.882l117.267,0l0,147.08l-15.404,0l0,-60.621c-7.288,20.539 -20.372,36.936 -39.254,49.193c-18.551,12.588 -39.421,18.882 -62.609,18.882Z" style="fill:#34495e;fill-rule:nonzero;"/><path d="M1179.92,1711.86l-19.876,0l0,-294.658l27.329,0l177.888,270.311l0,-270.311l19.876,0l0,294.658l-27.329,0l-177.888,-266.335l0,266.335Z" style="fill:#34495e;fill-rule:nonzero;"/><path d="M1554.58,1719.32c-30.476,0 -56.646,-9.938 -78.509,-29.814c-21.532,-19.876 -32.298,-43.892 -32.298,-72.05l0,-200.248l19.875,0l0,200.248c0,23.189 8.945,42.899 26.833,59.131c17.557,16.232 38.923,24.348 64.099,24.348c23.851,0 44.389,-8.116 61.615,-24.348c16.894,-16.232 25.342,-35.942 25.342,-59.131l0,-200.248l19.875,0l0,200.248c0,28.158 -10.434,52.174 -31.304,72.05c-20.87,19.876 -46.046,29.814 -75.528,29.814Z" style="fill:#34495e;fill-rule:nonzero;"/><path d="M1739.92,1711.86l-19.876,0l0,-294.658l31.304,0l107.826,269.814l107.33,-269.814l31.304,0l0,294.658l-19.876,0l0,-271.801l-109.814,271.801l-18.385,0l-109.813,-271.801l0,271.801Z" style="fill:#34495e;fill-rule:nonzero;"/><path d="M2097.59,1747.43l-1650,0l150,150" style="fill:none;stroke-width:14.58px;stroke:#80ba8e;"/><path d="M447.592,1381.13l1650,0l-150,-150" style="fill:none;stroke-width:14.58px;stroke:#80ba8e;"/></svg>