<?xml version="1.0" encoding="utf-8"?>
<!-- Generator: Adobe Illustrator 16.0.0, SVG Export Plug-In . SVG Version: 6.00 Build 0)  -->
<!DOCTYPE svg PUBLIC "-//W3C//DTD SVG 1.1//EN" "http://www.w3.org/Graphics/SVG/1.1/DTD/svg11.dtd">
<svg version="1.1" id="Layer_1" xmlns="http://www.w3.org/2000/svg" xmlns:xlink="http://www.w3.org/1999/xlink" x="0px" y="0px"
	 width="612px" height="792px" viewBox="0 0 612 792" enable-background="new 0 0 612 792" xml:space="preserve">
<g>
	<path fill="#FFFFFF" d="M279.407,707.21c-4.037,0-7.445-2.5-9.849-7.229c-1.936-3.796-2.871-8.824-2.778-14.945l0.068-4.39
		l10.049-5.504c-0.932-1.093-1.749-2.325-2.451-3.696c-1.353-2.633-2.808-7.177-2.065-13.861c0.538-4.865,2.074-9.066,4.567-12.482
		c2.512-3.44,5.366-5.187,8.482-5.187c3.297,0,6.104,2.044,8.112,5.909c1.186,2.241,1.953,5.367,2.327,9.519l0.458,5.052
		l-6.247,3.693c1.053,1.254,1.997,2.691,2.831,4.312c2.396,4.621,3.303,10.46,2.609,16.865c-0.681,6.101-2.595,11.323-5.689,15.545
		C286.72,705.059,283.21,707.21,279.407,707.21z M279.071,683.172c-0.132,3.108,0.181,4.074,0.183,4.085
		c0.089,0.157,0.251,0.471,0.928,0.471c0.499,0,1.19-0.157,2.084-1.375c0.702-0.965,1.098-2.01,1.242-3.281
		c0.123-1.157-0.068-1.534-0.208-1.807c-0.527-1.038-1.234-1.865-2.155-2.544c-0.64-0.377-1.253-0.794-1.835-1.252L279.071,683.172z
		"/>
	<path fill="#FFFFFF" d="M282.614,672.878c-2.221-1.271-3.935-3.081-5.143-5.434c-1.209-2.354-1.617-5.271-1.229-8.753
		c0.374-3.413,1.459-6.345,3.25-8.796c1.791-2.458,3.769-3.683,5.938-3.683c2.136,0,3.837,1.216,5.101,3.648
		c0.711,1.339,1.195,3.467,1.459,6.388l-4.186,2.477c-0.251-2.05-0.536-3.39-0.855-4.014c-0.569-1.069-1.331-1.606-2.293-1.606
		c-0.97,0-1.854,0.54-2.654,1.624c-0.8,1.082-1.28,2.401-1.446,3.962c-0.17,1.564,0.025,2.89,0.583,3.983
		c0.625,1.206,1.561,2.309,2.812,3.313c2.459,1.36,4.438,3.501,5.938,6.423c1.677,3.233,2.268,7.159,1.771,11.773
		c-0.515,4.619-1.97,8.562-4.365,11.83c-2.395,3.267-5.024,4.899-7.887,4.899c-2.872,0-5.144-1.636-6.812-4.916
		c-1.331-2.61-1.965-6.215-1.897-10.808l4.459-2.442c-0.166,3.949,0.174,6.75,1.021,8.4c0.987,1.916,2.319,2.876,4.004,2.876
		c1.676,0,3.22-0.96,4.624-2.876c1.399-1.922,2.255-4.241,2.561-6.964c0.294-2.694-0.055-5.003-1.042-6.923
		C285.393,675.434,284.159,673.972,282.614,672.878z"/>
	<path fill="#FFFFFF" d="M290.489,706.644V662.08c-0.579-1.636-0.877-3.484-0.877-5.463c0-3.057,0.715-5.805,2.067-7.938
		c1.345-2.104,3.025-3.208,4.871-3.208c1.863,0,3.553,1.104,4.884,3.19c1.361,2.143,2.08,4.889,2.08,7.956
		c0,1.981-0.297,3.827-0.876,5.46v44.566H290.489z"/>
	<path fill="#FFFFFF" d="M298.699,653.17c0.596,0.939,0.894,2.088,0.894,3.447c0,1.363-0.298,2.512-0.894,3.447
		c-0.6,0.937-1.314,1.404-2.148,1.404c-0.816,0-1.527-0.468-2.122-1.404c-0.596-0.936-0.898-2.084-0.898-3.447
		c0-1.359,0.303-2.508,0.898-3.447c0.595-0.935,1.306-1.403,2.122-1.403C297.385,651.767,298.1,652.235,298.699,653.17z
		 M298.721,665.92v34.427h-4.313V665.92H298.721z"/>
	<path fill="#FFFFFF" d="M316.469,718.22c-4.245,0-7.942-2.183-10.984-6.49l-0.183-0.274c-0.643-1.027-1.468-2.691-2.678-5.383
		l-3.048-6.787l4.232-2.439c-1.944-4.206-2.927-9.121-2.927-14.665c0-6.969,1.553-12.999,4.618-17.917
		c3.064-4.924,6.817-7.417,11.156-7.417c2.412,0,4.642,0.93,6.67,2.777h8.854v31.89c0,8.393-1.527,15.102-4.542,19.941l-0.183,0.278
		C324.407,716.037,320.712,718.22,316.469,718.22z M316.656,676.529c-1.004,0-1.77,0.513-2.48,1.661
		c-0.715,1.154-1.033,2.384-1.033,3.99c0,1.623,0.314,2.855,1.027,3.996c0.71,1.142,1.478,1.649,2.486,1.649
		c1.013,0,1.773-0.505,2.478-1.633c0.424-0.679,0.704-1.349,0.854-2.032v-3.895c-0.111-0.533-0.336-1.235-0.854-2.066
		C318.409,677.021,317.673,676.529,316.656,676.529z"/>
	<path fill="#FFFFFF" d="M323.927,668.294v-2.374h4.335v25.594c0,6.692-1.132,11.856-3.396,15.49c-2.322,3.28-5.117,4.92-8.397,4.92
		c-3.275,0-6.075-1.64-8.394-4.92c-0.472-0.757-1.229-2.299-2.271-4.617l4.293-2.473c0.553,1.068,0.927,1.758,1.123,2.073
		c1.459,2.319,3.207,3.477,5.249,3.477c3.434,0,5.807-3.61,7.126-10.839c-1.349,4.195-3.658,6.289-6.938,6.289
		c-3.275,0-6.071-1.803-8.385-5.418c-2.311-3.614-3.468-8.053-3.468-13.315c0-5.264,1.157-9.753,3.468-13.466
		c2.313-3.715,5.109-5.573,8.385-5.573C319.421,663.142,321.846,664.861,323.927,668.294z M323.905,679.502
		c-0.264-2.117-0.928-4.034-2-5.753c-1.441-2.344-3.194-3.515-5.249-3.515s-3.808,1.171-5.258,3.515
		c-1.451,2.34-2.179,5.151-2.179,8.432c0,3.3,0.728,6.118,2.179,8.447c1.45,2.33,3.203,3.495,5.258,3.495s3.808-1.158,5.249-3.479
		c1.072-1.717,1.736-3.613,2-5.687V679.502z"/>
	<path fill="#FFFFFF" d="M343.776,706.644v-28.412c0-0.229,0-0.325-0.173-0.595c-0.185-0.287-0.278-0.334-0.491-0.334
		c-0.108,0-0.189,0.013-0.268,0.064v29.276h-12.171v-47.02h8.814c1.401-1.227,3.048-1.876,4.875-1.876
		c3.479,0,6.437,2.155,8.547,6.237c1.943,3.762,2.961,8.429,3.021,13.869v28.789H343.776z"/>
	<path fill="#FFFFFF" d="M338.927,675.154v25.192h-4.335V665.92h4.335v4.013c0.901-3.924,2.714-5.889,5.437-5.889
		c2.318,0,4.165,1.322,5.53,3.966c1.37,2.645,2.072,5.962,2.114,9.955v22.382h-4.31v-22.115c0-1.984-0.455-3.686-1.356-5.101
		c-0.902-1.418-1.979-2.125-3.229-2.125c-1.233,0-2.306,0.689-3.207,2.075C339.407,673.907,339.08,674.596,338.927,675.154z"/>
	<path fill="#FFFFFF" d="M367.093,707.111c-3.773,0-6.908-1.958-9.314-5.825c-2.389-3.833-3.629-8.649-3.69-14.313v-27.35h12.176
		v26.973c0,0.232,0,0.339,0.183,0.629c0.106,0.168,0.213,0.334,0.626,0.334c0.185,0,0.287-0.032,0.489-0.348
		c0.165-0.256,0.174-0.352,0.174-0.615v-26.973h12.154v27.239c-0.062,5.764-1.293,10.572-3.661,14.405
		C373.811,705.153,370.741,707.111,367.093,707.111z"/>
	<path fill="#FFFFFF" d="M367.093,700.815c-2.71,0-4.888-1.327-6.543-3.98c-1.65-2.653-2.497-5.979-2.539-9.972V665.92h4.33v20.677
		c0,1.985,0.451,3.69,1.357,5.118c0.902,1.429,2.025,2.142,3.374,2.142c1.237,0,2.31-0.707,3.22-2.125
		c0.906-1.418,1.361-3.129,1.361-5.135V665.92h4.313v20.943c-0.042,3.993-0.88,7.318-2.522,9.972
		C371.794,699.488,369.676,700.815,367.093,700.815z"/>
	<path fill="#FFFFFF" d="M378.294,706.644v-47.02h8.398c1.335-1.203,2.905-1.841,4.649-1.841c1.687,0,3.174,0.658,4.395,1.875
		c1.455-1.227,3.212-1.875,5.207-1.875c4.093,0,8.461,3.983,8.461,15.162v33.698H378.294z"/>
	<path fill="#FFFFFF" d="M382.217,665.92h4.31v3.212c0.833-3.369,2.438-5.054,4.815-5.054c2.361,0,3.684,1.92,3.978,5.756
		c0.681-3.836,2.557-5.756,5.624-5.756c3.028,0,4.543,2.958,4.543,8.867v27.401h-4.335v-24.224c0-3.388-0.854-5.086-2.561-5.086
		c-0.711,0-1.319,0.403-1.834,1.206s-0.77,3.501-0.77,8.096v20.008h-4.313l0.021-24.224c0-3.388-0.863-5.086-2.582-5.086
		c-0.71,0-1.318,0.403-1.833,1.206c-0.447,0.69-0.698,2.521-0.753,5.486v22.617h-4.31V665.92z"/>
</g>
<text transform="matrix(0.7889 0 0 1 275.3252 688.3193)" fill="#35495E" font-family="'CaviarDreams-Bold'" font-size="54.0833">Signum</text>
<g id="XMLID_1_">
	<g>
		<path fill="#FFFFFF" d="M272.85,667.33c0.64,1.11,0.64,2.49,0,3.6l-9,15.59c-0.16,0.271-0.35,0.521-0.57,0.74
			c-0.67,0.67-1.58,1.061-2.55,1.061h-4.98l11.02-19.19l-11.02-19.189h4.98c1.29,0,2.48,0.689,3.12,1.8L272.85,667.33z"/>
		<path fill="#35495E" d="M255.75,649.94l11.02,19.189l-11.02,19.19h-13.02c-1.28,0-2.47-0.69-3.12-1.801l-9-15.59
			c-0.64-1.109-0.64-2.489,0-3.6l9-15.59c0.16-0.271,0.36-0.521,0.58-0.74c0.66-0.67,1.57-1.06,2.54-1.06H255.75z"/>
	</g>
	<g>
		<path fill="none" stroke="#35495E" stroke-miterlimit="10" d="M255.75,649.94h4.98c1.29,0,2.48,0.689,3.12,1.8l9,15.59
			c0.64,1.11,0.64,2.49,0,3.6l-9,15.59c-0.16,0.271-0.35,0.521-0.57,0.74c-0.67,0.67-1.58,1.061-2.55,1.061h-4.98h-13.02
			c-1.28,0-2.47-0.69-3.12-1.801l-9-15.59c-0.64-1.109-0.64-2.489,0-3.6l9-15.59c0.16-0.271,0.36-0.521,0.58-0.74
			c0.66-0.67,1.57-1.06,2.54-1.06H255.75z"/>
	</g>
</g>
<path fill="#35495E" d="M93.45,313.23c0,2.21,0.447,4.035,1.343,5.475c0.896,1.442,2.1,2.631,3.612,3.566
	c1.512,0.936,3.267,1.704,5.263,2.303c1.997,0.599,4.078,1.16,6.244,1.684c2.911,0.712,5.776,1.498,8.595,2.359
	s5.329,2.049,7.531,3.564c2.202,1.518,3.985,3.492,5.348,5.925c1.363,2.435,2.044,5.56,2.044,9.378
	c0,3.894-0.738,7.253-2.214,10.078c-1.476,2.828-3.516,5.148-6.121,6.963c-2.604,1.816-5.685,3.164-9.241,4.043
	c-3.557,0.88-7.45,1.32-11.68,1.32c-1.947,0-3.94-0.122-5.98-0.365c-2.041-0.244-3.987-0.57-5.84-0.982
	c-1.854-0.412-3.529-0.879-5.026-1.404c-1.498-0.523-2.677-1.047-3.538-1.572v-8.366c1.348,0.674,2.864,1.292,4.548,1.853
	c1.685,0.563,3.425,1.039,5.222,1.432c1.797,0.395,3.612,0.703,5.447,0.928c1.833,0.225,3.556,0.336,5.166,0.336
	c2.62,0,5.119-0.225,7.497-0.674c2.376-0.449,4.464-1.197,6.261-2.246c1.797-1.047,3.219-2.479,4.268-4.295
	c1.047-1.815,1.572-4.09,1.572-6.822c0-2.246-0.459-4.1-1.376-5.56c-0.917-1.46-2.143-2.667-3.678-3.622
	c-1.536-0.955-3.304-1.73-5.307-2.33c-2.003-0.598-4.108-1.16-6.317-1.685c-2.92-0.674-5.775-1.433-8.563-2.274
	c-2.79-0.842-5.278-2.012-7.469-3.51c-2.189-1.496-3.95-3.425-5.278-5.783c-1.329-2.358-1.993-5.371-1.993-9.041
	c0-3.818,0.698-7.104,2.094-9.854c1.397-2.752,3.287-5.026,5.671-6.823s5.13-3.125,8.238-3.987c3.107-0.86,6.42-1.291,9.939-1.291
	c4.005,0,7.739,0.385,11.202,1.15c3.462,0.769,6.635,1.77,9.518,3.005v8.479c-3.108-1.311-6.317-2.377-9.63-3.201
	c-3.313-0.822-6.86-1.254-10.641-1.291c-2.845,0-5.316,0.309-7.412,0.926c-2.097,0.617-3.838,1.498-5.222,2.639
	c-1.385,1.143-2.415,2.527-3.088,4.156S93.45,311.247,93.45,313.23z"/>
<path fill="#35495E" d="M149.041,368.484v-53.344h8.704v53.344H149.041z"/>
<path fill="#35495E" d="M195.816,313.736c2.321,0.037,4.342,0.337,6.064,0.898c1.721,0.562,3.201,1.264,4.436,2.105
	s2.218,1.676,2.948,2.499c0.73,0.823,1.226,1.479,1.488,1.966h0.225l1.797-6.064h6.57v56.488c0,4.118-0.674,7.702-2.021,10.754
	c-1.348,3.051-3.238,5.587-5.671,7.608c-2.434,2.021-5.362,3.528-8.788,4.521c-3.425,0.991-7.215,1.488-11.371,1.488
	c-3.519,0-6.664-0.309-9.434-0.928c-2.771-0.617-4.941-1.356-6.514-2.217v-7.356c1.272,0.524,2.507,0.964,3.706,1.319
	c1.198,0.355,2.433,0.654,3.706,0.898c1.272,0.243,2.573,0.422,3.903,0.533c1.328,0.113,2.798,0.169,4.408,0.169
	c6.251,0,11.042-1.46,14.375-4.38c3.332-2.92,4.998-7.375,4.998-13.364v-7.132h-0.168c-1.909,2.098-4.127,3.678-6.654,4.746
	c-2.527,1.066-5.419,1.6-8.676,1.6c-1.498,0-3.108-0.168-4.829-0.506c-1.722-0.336-3.445-0.906-5.166-1.713
	c-1.722-0.804-3.369-1.871-4.941-3.199c-1.572-1.329-2.958-2.995-4.155-4.998c-1.199-2.002-2.162-4.371-2.892-7.104
	c-0.73-2.732-1.095-5.896-1.095-9.49c0-4.978,0.674-9.293,2.021-12.943c1.348-3.648,3.125-6.672,5.334-9.068
	c2.208-2.395,4.735-4.184,7.581-5.361C189.844,314.326,192.784,313.736,195.816,313.736z M181.16,342.149
	c0,4.192,0.505,7.618,1.516,10.276s2.292,4.727,3.847,6.205c1.553,1.479,3.247,2.489,5.082,3.031
	c1.833,0.543,3.574,0.814,5.222,0.814c2.695,0,5.222-0.542,7.581-1.629c2.358-1.085,4.436-2.563,6.233-4.436v-27.908
	c-0.487-0.674-1.161-1.439-2.021-2.302c-0.862-0.86-1.863-1.657-3.004-2.386c-1.143-0.73-2.443-1.348-3.903-1.854
	s-3.052-0.758-4.773-0.758c-2.583,0-4.857,0.515-6.822,1.543c-1.966,1.031-3.613,2.463-4.941,4.297
	c-1.33,1.834-2.331,4.033-3.004,6.598S181.16,339.043,181.16,342.149z"/>
<path fill="#35495E" d="M244.612,322.553h0.168c0.973-1.236,2.049-2.387,3.229-3.453c1.179-1.068,2.499-2.003,3.958-2.809
	c1.46-0.805,3.06-1.432,4.801-1.881c1.74-0.449,3.64-0.674,5.699-0.674c2.433,0,4.717,0.337,6.851,1.011s3.986,1.761,5.559,3.257
	c1.572,1.498,2.816,3.453,3.734,5.867c0.917,2.416,1.376,5.383,1.376,8.9v35.713h-8.704v-34.309c0-4.604-0.89-7.918-2.667-9.939
	c-1.778-2.021-4.371-3.031-7.776-3.031c-2.996,0-5.896,0.833-8.704,2.498c-2.808,1.666-5.222,3.959-7.244,6.879v37.902h-8.704
	v-53.344h6.738L244.612,322.553z"/>
<path fill="#35495E" d="M318.003,369.889c-2.771,0-5.26-0.301-7.468-0.898c-2.209-0.598-4.146-1.44-5.812-2.527
	c-1.666-1.085-3.08-2.387-4.24-3.902s-2.077-3.172-2.751-4.969c-0.524-1.348-0.898-2.826-1.123-4.437
	c-0.225-1.608-0.337-3.369-0.337-5.278v-32.736h8.703v32.68c0,2.958,0.394,5.429,1.18,7.412c0.898,2.246,2.349,4.016,4.352,5.307
	c2.002,1.291,4.558,1.938,7.665,1.938c3.294,0,5.942-0.711,7.945-2.134c2.002-1.423,3.435-3.331,4.296-5.728
	c0.636-1.834,0.955-4.1,0.955-6.795v-32.68h8.703v32.793c0,1.797-0.104,3.473-0.309,5.025c-0.206,1.554-0.533,2.985-0.982,4.295
	c-0.674,1.835-1.601,3.529-2.78,5.082c-1.179,1.555-2.63,2.893-4.352,4.016c-1.723,1.123-3.716,1.992-5.98,2.611
	C323.402,369.58,320.848,369.889,318.003,369.889z"/>
<path fill="#35495E" d="M399.93,368.484h-8.704v-34.309c0-2.32-0.252-4.295-0.758-5.924c-0.505-1.629-1.235-2.967-2.189-4.016
	c-0.955-1.047-2.098-1.814-3.426-2.302c-1.329-0.485-2.817-0.729-4.464-0.729c-3.107,0-5.934,0.833-8.479,2.498
	c-2.546,1.666-4.828,3.959-6.85,6.879v37.902h-8.704v-53.344h6.738l1.685,7.412h0.168c0.974-1.236,2.03-2.387,3.173-3.453
	c1.142-1.068,2.415-2.003,3.818-2.809c1.404-0.805,2.948-1.432,4.633-1.881s3.519-0.674,5.503-0.674
	c3.968,0,7.262,0.955,9.883,2.863c2.62,1.91,4.642,4.512,6.064,7.806h0.225c2.362-3.331,5.062-5.942,8.099-7.833
	c3.036-1.891,6.579-2.836,10.629-2.836c1.874,0,3.861,0.262,5.961,0.786s4.031,1.487,5.793,2.892s3.224,3.342,4.387,5.813
	c1.161,2.471,1.743,5.652,1.743,9.545v35.713h-8.703v-34.309c0-2.32-0.253-4.295-0.759-5.924c-0.505-1.629-1.235-2.967-2.189-4.016
	c-0.955-1.047-2.098-1.814-3.426-2.302c-1.329-0.485-2.817-0.729-4.464-0.729c-3.107,0-5.943,0.833-8.507,2.498
	c-2.564,1.666-4.857,3.959-6.879,6.879V368.484z"/>
<g>
	<path fill="#80BB8F" d="M158.167,297.54v-0.078l-12.837-6.282v-2.909l15.901,7.912v2.637l-15.901,7.912v-2.909L158.167,297.54z"/>
</g>
<g>
	<rect x="361.133" y="203.079" width="15.365" height="9"/>
	<rect x="396.003" y="203.079" width="15.423" height="9"/>
	<path d="M341.628,203.079h-5.483v8.704c0,0.101-0.009,0.196-0.009,0.296h5.492V203.079z"/>
	<polygon points="322.161,56.445 322.161,173.59 331.161,173.59 331.161,56.445 348.812,74.095 355.175,67.731 326.661,39.217 
		297.813,68.066 304.176,74.43 	"/>
	<polygon points="466.176,178.729 459.813,185.094 477.797,203.079 430.93,203.079 430.93,212.079 477.797,212.079 460.146,229.731 
		466.509,236.095 495.025,207.579 	"/>
	<path d="M330.974,229.452c-1.547,2.038-3.466,3.813-5.702,5.271c-0.969,0.632-2.014,1.19-3.11,1.695v25.162h9v-32.396
		C331.097,229.272,331.039,229.365,330.974,229.452z"/>
	<path d="M281.545,211.727v-8.647h-5.484v9h5.49C281.55,211.96,281.545,211.846,281.545,211.727z"/>
	<path d="M301.048,211.67c0,0.143,0.011,0.269,0.013,0.409h15.568c0.003-0.139,0.012-0.266,0.012-0.409v-8.591h-15.592V211.67z"/>
</g>
<g>
	<path d="M84.123,177.081c0,2.209,0.447,4.034,1.343,5.475c0.896,1.442,2.1,2.631,3.612,3.566c1.512,0.936,3.267,1.704,5.263,2.302
		c1.997,0.599,4.078,1.161,6.244,1.685c2.911,0.711,5.776,1.498,8.595,2.358c2.818,0.862,5.329,2.05,7.531,3.565
		c2.202,1.517,3.985,3.491,5.348,5.924c1.363,2.434,2.044,5.559,2.044,9.377c0,3.894-0.738,7.253-2.214,10.079
		c-1.476,2.827-3.516,5.148-6.121,6.963c-2.604,1.816-5.685,3.164-9.241,4.043c-3.557,0.879-7.45,1.32-11.68,1.32
		c-1.947,0-3.94-0.122-5.98-0.365c-2.041-0.244-3.987-0.571-5.84-0.983c-1.854-0.412-3.529-0.879-5.026-1.404
		c-1.498-0.524-2.677-1.047-3.538-1.572v-8.367c1.348,0.674,2.864,1.292,4.548,1.853s3.425,1.039,5.222,1.432
		c1.797,0.394,3.612,0.702,5.447,0.927c1.833,0.225,3.556,0.337,5.166,0.337c2.62,0,5.119-0.225,7.497-0.674
		c2.376-0.449,4.464-1.198,6.261-2.246c1.797-1.047,3.219-2.479,4.268-4.296c1.047-1.815,1.572-4.089,1.572-6.822
		c0-2.246-0.459-4.099-1.376-5.559c-0.917-1.46-2.143-2.667-3.678-3.622c-1.536-0.955-3.304-1.731-5.307-2.331
		c-2.003-0.598-4.108-1.16-6.317-1.685c-2.92-0.674-5.775-1.432-8.563-2.274c-2.79-0.843-5.278-2.012-7.469-3.51
		c-2.189-1.497-3.95-3.425-5.278-5.784c-1.329-2.358-1.993-5.371-1.993-9.041c0-3.818,0.698-7.104,2.094-9.854
		c1.397-2.752,3.287-5.026,5.671-6.823s5.13-3.125,8.238-3.987c3.107-0.861,6.42-1.292,9.939-1.292
		c4.005,0,7.739,0.384,11.202,1.151c3.462,0.768,6.635,1.769,9.518,3.004v8.479c-3.108-1.31-6.317-2.377-9.63-3.201
		c-3.313-0.823-6.86-1.254-10.641-1.292c-2.845,0-5.316,0.309-7.412,0.927c-2.097,0.617-3.838,1.498-5.222,2.639
		c-1.385,1.143-2.415,2.527-3.088,4.155C84.46,173.291,84.123,175.097,84.123,177.081z"/>
	<path d="M139.489,166.58v-9.714h8.704v9.714H139.489z M139.714,232.334V178.99h8.704v53.345H139.714z"/>
	<path d="M186.489,177.586c2.321,0.038,4.342,0.337,6.064,0.898c1.721,0.562,3.201,1.263,4.436,2.106
		c1.235,0.842,2.218,1.676,2.948,2.499c0.73,0.824,1.226,1.479,1.488,1.965h0.225l1.797-6.064h6.57v56.489
		c0,4.118-0.674,7.702-2.021,10.753c-1.348,3.051-3.238,5.587-5.671,7.609c-2.434,2.021-5.362,3.528-8.788,4.52
		c-3.425,0.992-7.215,1.488-11.371,1.488c-3.519,0-6.664-0.309-9.434-0.927c-2.771-0.617-4.941-1.357-6.514-2.218v-7.356
		c1.272,0.524,2.507,0.963,3.706,1.32c1.198,0.355,2.433,0.654,3.706,0.898c1.272,0.243,2.573,0.421,3.903,0.533
		c1.328,0.112,2.798,0.168,4.408,0.168c6.251,0,11.042-1.46,14.375-4.38c3.332-2.92,4.998-7.375,4.998-13.364v-7.131h-0.168
		c-1.909,2.097-4.127,3.678-6.654,4.745c-2.527,1.066-5.419,1.6-8.676,1.6c-1.498,0-3.108-0.168-4.829-0.505
		c-1.722-0.337-3.445-0.907-5.166-1.713c-1.722-0.804-3.369-1.871-4.941-3.2c-1.572-1.329-2.958-2.995-4.155-4.998
		c-1.199-2.002-2.162-4.37-2.892-7.103c-0.73-2.732-1.095-5.896-1.095-9.49c0-4.978,0.674-9.293,2.021-12.943
		c1.348-3.649,3.125-6.672,5.334-9.068c2.208-2.395,4.735-4.184,7.581-5.362C180.517,178.175,183.457,177.586,186.489,177.586z
		 M171.833,205.999c0,4.193,0.505,7.618,1.516,10.276c1.011,2.659,2.292,4.727,3.847,6.205c1.553,1.479,3.247,2.49,5.082,3.032
		c1.833,0.543,3.574,0.814,5.222,0.814c2.695,0,5.222-0.542,7.581-1.628c2.358-1.085,4.436-2.563,6.233-4.436v-27.908
		c-0.487-0.674-1.161-1.44-2.021-2.302c-0.862-0.861-1.863-1.657-3.004-2.386c-1.143-0.73-2.443-1.348-3.903-1.854
		c-1.46-0.505-3.052-0.758-4.773-0.758c-2.583,0-4.857,0.515-6.822,1.544c-1.966,1.03-3.613,2.462-4.941,4.296
		c-1.33,1.834-2.331,4.034-3.004,6.598C172.17,200.057,171.833,202.892,171.833,205.999z"/>
	<path d="M235.285,186.402h0.168c0.973-1.235,2.049-2.387,3.229-3.453c1.179-1.067,2.499-2.002,3.958-2.808
		c1.461-0.805,3.061-1.432,4.802-1.881c1.74-0.449,3.64-0.674,5.699-0.674c2.433,0,4.717,0.337,6.851,1.011s3.986,1.76,5.559,3.257
		c1.572,1.498,2.816,3.454,3.734,5.868c0.917,2.415,1.376,5.382,1.376,8.9v35.713h-8.704v-34.309c0-4.604-0.89-7.917-2.667-9.939
		c-1.778-2.021-4.371-3.032-7.776-3.032c-2.996,0-5.896,0.833-8.704,2.499c-2.808,1.666-5.222,3.958-7.244,6.878v37.903h-8.704
		V178.99h6.738L235.285,186.402z"/>
	<path d="M308.676,233.738c-2.771,0-5.26-0.3-7.468-0.898c-2.209-0.598-4.146-1.44-5.812-2.527c-1.666-1.085-3.08-2.387-4.24-3.902
		c-1.16-1.517-2.077-3.173-2.751-4.97c-0.524-1.348-0.898-2.826-1.123-4.436c-0.225-1.609-0.337-3.369-0.337-5.278V178.99h8.703
		v32.681c0,2.958,0.394,5.428,1.18,7.412c0.898,2.246,2.349,4.015,4.352,5.307c2.002,1.291,4.558,1.937,7.665,1.937
		c3.294,0,5.942-0.71,7.945-2.134c2.002-1.422,3.435-3.332,4.296-5.728c0.636-1.833,0.955-4.099,0.955-6.794l0.12-38.081h9
		l-0.417,38.193c0,1.797-0.104,3.473-0.309,5.025c-0.206,1.554-0.533,2.986-0.982,4.296c-0.674,1.834-1.601,3.529-2.78,5.082
		c-1.179,1.554-2.63,2.892-4.352,4.015c-1.723,1.123-3.716,1.993-5.98,2.611C314.075,233.429,311.521,233.738,308.676,233.738z"/>
	<path d="M390.603,232.334h-8.704v-34.309c0-2.321-0.252-4.295-0.758-5.924c-0.505-1.628-1.235-2.966-2.189-4.015
		c-0.955-1.047-2.098-1.815-3.426-2.302c-1.329-0.486-2.817-0.73-4.464-0.73c-3.107,0-5.934,0.833-8.479,2.499
		c-2.546,1.666-4.828,3.958-6.85,6.878v37.903h-8.704V178.99h6.738l1.685,7.412h0.168c0.974-1.235,2.03-2.387,3.173-3.453
		c1.142-1.067,2.415-2.002,3.818-2.808c1.404-0.805,2.948-1.432,4.633-1.881s3.519-0.674,5.503-0.674
		c3.968,0,7.262,0.955,9.883,2.864c2.62,1.909,4.642,4.512,6.064,7.805h0.225c2.362-3.332,5.062-5.942,8.099-7.833
		c3.036-1.89,6.579-2.835,10.629-2.835c1.874,0,3.861,0.262,5.961,0.786c2.1,0.525,4.031,1.488,5.793,2.892
		c1.762,1.403,3.224,3.341,4.387,5.812c1.161,2.471,1.743,5.653,1.743,9.546v35.713h-8.703v-34.309c0-2.321-0.253-4.295-0.759-5.924
		c-0.505-1.628-1.235-2.966-2.189-4.015c-0.955-1.047-2.098-1.815-3.426-2.302c-1.329-0.486-2.817-0.73-4.464-0.73
		c-3.107,0-5.943,0.833-8.507,2.499c-2.564,1.666-4.857,3.958-6.879,6.878V232.334z"/>
</g>
<text transform="matrix(1 0 0 1 419.2598 -108.645)" font-family="'Corbel'" font-size="115">Signum</text>
<polygon points="817.586,-109.162 811.223,-102.798 829.207,-84.813 682.571,-84.813 682.571,-231.447 700.222,-213.796 
	706.585,-220.161 678.071,-248.675 649.223,-219.826 655.586,-213.461 673.571,-231.447 673.571,-84.813 624.071,-84.813 
	624.071,-75.813 673.571,-75.813 673.571,-26.311 682.571,-26.311 682.571,-75.813 829.207,-75.813 811.556,-58.161 
	817.919,-51.796 846.436,-80.313 "/>
<path fill="#80BB8F" stroke="#80BB8F" stroke-miterlimit="10" d="M229.939,706.453c-0.667,0.667-1.578,1.055-2.545,1.056h-18
	c-1.287-0.001-2.475-0.687-3.118-1.801l-9-15.588c-0.643-1.114-0.643-2.486,0-3.601l9-15.589c0.16-0.275,0.353-0.525,0.573-0.745
	c0.667-0.667,1.578-1.055,2.545-1.055h18c1.287,0,2.475,0.687,3.118,1.8l9,15.588c0.643,1.114,0.643,2.486,0,3.601l-9,15.589
	C230.352,705.983,230.159,706.233,229.939,706.453z"/>
<path fill="#FFFFFF" d="M229.939,668.075c-0.667,0.667-1.578,1.055-2.545,1.056h-18c-1.287-0.001-2.475-0.687-3.118-1.801l-9-15.588
	c-0.643-1.114-0.643-2.486,0-3.601l9-15.589c0.16-0.275,0.353-0.525,0.573-0.745c0.667-0.667,1.578-1.055,2.545-1.055h18
	c1.287,0,2.475,0.687,3.118,1.8l9,15.588c0.643,1.114,0.643,2.486,0,3.601l-9,15.589
	C230.352,667.605,230.159,667.855,229.939,668.075z"/>
<path fill="#FFFFFF" d="M209.395,672.73c-2.566-0.002-4.954-1.381-6.235-3.6l-9-15.589c-1.282-2.222-1.281-4.98,0-7.2l9-15.589
	c0.318-0.548,0.702-1.048,1.145-1.491c1.358-1.359,3.167-2.108,5.09-2.108h18c2.563,0,4.952,1.378,6.235,3.598l9.001,15.59
	c1.282,2.222,1.281,4.98,0,7.2l-9,15.589c-0.318,0.548-0.702,1.048-1.145,1.491c-1.357,1.358-3.164,2.107-5.087,2.109
	C227.396,672.73,209.395,672.73,209.395,672.73z"/>
<path fill="#80BB8F" stroke="#80BB8F" stroke-miterlimit="10" d="M229.939,668.075c-0.667,0.667-1.578,1.055-2.545,1.056h-18
	c-1.287-0.001-2.475-0.687-3.118-1.801l-9-15.588c-0.643-1.114-0.643-2.486,0-3.601l9-15.589c0.16-0.275,0.353-0.525,0.573-0.745
	c0.667-0.667,1.578-1.055,2.545-1.055h18c1.287,0,2.475,0.687,3.118,1.8l9,15.588c0.643,1.114,0.643,2.486,0,3.601l-9,15.589
	C230.352,667.605,230.159,667.855,229.939,668.075z"/>
</svg>
