<?xml version="1.0" standalone="no"?>
<!DOCTYPE svg PUBLIC "-//W3C//DTD SVG 1.1//EN" "http://www.w3.org/Graphics/SVG/1.1/DTD/svg11.dtd">
<svg width="100%" height="100%" viewBox="0 0 2550 3300" version="1.1" xmlns="http://www.w3.org/2000/svg" xmlns:xlink="http://www.w3.org/1999/xlink" xml:space="preserve" style="fill-rule:evenodd;clip-rule:evenodd;stroke-linejoin:round;stroke-miterlimit:1.41421;">
    <g transform="matrix(0.802451,-4.4175e-17,-4.83856e-17,0.912978,187.927,139.516)">
        <rect x="-234.192" y="-152.814" width="3177.76" height="3614.55" style="fill:white;"/>
    </g>
    <g transform="matrix(1,0,0,1,832.138,-93.443)">
        <path d="M-201.286,1812.76C-229.774,1812.76 -253.956,1803.15 -273.832,1783.94C-294.039,1765.06 -304.143,1742.04 -304.143,1714.87L-284.267,1714.87C-284.267,1736.74 -276.151,1755.45 -259.919,1771.02C-243.687,1786.59 -224.143,1794.38 -201.286,1794.38C-176.441,1794.38 -155.074,1787.75 -137.186,1774.5C-119.629,1761.25 -110.851,1745.18 -110.851,1726.3C-110.851,1710.07 -118.635,1696.49 -134.205,1685.56C-149.443,1674.62 -169.981,1668 -195.82,1665.68C-227.29,1663.03 -252.466,1654.09 -271.348,1638.85C-290.23,1623.61 -299.671,1604.89 -299.671,1582.7C-299.671,1560.83 -290.064,1542.12 -270.851,1526.55C-251.638,1510.98 -228.449,1503.19 -201.286,1503.19C-172.134,1503.19 -147.124,1511.31 -126.255,1527.54C-105.716,1543.77 -95.447,1563.32 -95.447,1586.18L-115.323,1586.18C-115.323,1568.62 -123.77,1553.55 -140.664,1540.96C-157.228,1528.37 -177.435,1522.08 -201.286,1522.08C-222.818,1522.08 -241.368,1528.04 -256.938,1539.97C-272.176,1551.56 -279.795,1565.8 -279.795,1582.7C-279.795,1599.26 -271.845,1613.17 -255.944,1624.44C-239.712,1635.7 -218.346,1642.49 -191.845,1644.81C-161.368,1647.46 -136.855,1656.24 -118.304,1671.14C-100.085,1686.05 -90.975,1704.44 -90.975,1726.3C-90.975,1750.15 -101.741,1770.52 -123.273,1787.42C-144.805,1804.31 -170.809,1812.76 -201.286,1812.76Z" style="fill:rgb(52,73,94);fill-rule:nonzero;"/>
        <rect x="-46.751" y="1510.65" width="19.876" height="294.658" style="fill:rgb(52,73,94);fill-rule:nonzero;"/>
        <path d="M158.963,1812.76C120.536,1812.76 87.576,1797.69 60.081,1767.54C32.917,1737.4 19.336,1700.96 19.336,1658.23C19.336,1615.49 32.917,1578.89 60.081,1548.41C87.576,1518.27 120.536,1503.19 158.963,1503.19C188.114,1503.19 213.787,1511.81 235.982,1529.03C258.176,1545.93 271.592,1567.46 276.23,1593.63L256.354,1593.63C252.71,1573.09 241.613,1556.03 223.062,1542.45C204.843,1528.87 183.476,1522.08 158.963,1522.08C125.837,1522.08 97.679,1535.33 74.491,1561.83C50.971,1588.66 39.211,1620.79 39.211,1658.23C39.211,1695.66 50.971,1727.79 74.491,1754.62C97.679,1781.12 125.837,1794.38 158.963,1794.38C187.12,1794.38 211.137,1783.61 231.013,1762.08C250.888,1740.88 260.826,1715.04 260.826,1684.56L260.826,1677.11L158.963,1677.11L158.963,1658.23L276.23,1658.23L276.23,1805.31L260.826,1805.31L260.826,1744.68C253.538,1765.22 240.454,1781.62 221.572,1793.88C203.021,1806.47 182.151,1812.76 158.963,1812.76Z" style="fill:rgb(52,73,94);fill-rule:nonzero;"/>
        <path d="M347.783,1805.31L327.907,1805.31L327.907,1510.65L355.236,1510.65L533.124,1780.96L533.124,1510.65L553,1510.65L553,1805.31L525.671,1805.31L347.783,1538.97L347.783,1805.31Z" style="fill:rgb(52,73,94);fill-rule:nonzero;"/>
        <path d="M722.441,1812.76C691.965,1812.76 665.795,1802.82 643.932,1782.95C622.4,1763.07 611.634,1739.05 611.634,1710.9L611.634,1510.65L631.509,1510.65L631.509,1710.9C631.509,1734.09 640.454,1753.8 658.342,1770.03C675.899,1786.26 697.265,1794.38 722.441,1794.38C746.292,1794.38 766.83,1786.26 784.056,1770.03C800.95,1753.8 809.398,1734.09 809.398,1710.9L809.398,1510.65L829.273,1510.65L829.273,1710.9C829.273,1739.05 818.839,1763.07 797.969,1782.95C777.1,1802.82 751.924,1812.76 722.441,1812.76Z" style="fill:rgb(52,73,94);fill-rule:nonzero;"/>
        <path d="M907.783,1805.31L887.907,1805.31L887.907,1510.65L919.211,1510.65L1027.04,1780.46L1134.37,1510.65L1165.67,1510.65L1165.67,1805.31L1145.8,1805.31L1145.8,1533.51L1035.98,1805.31L1017.6,1805.31L907.783,1533.51L907.783,1805.31Z" style="fill:rgb(52,73,94);fill-rule:nonzero;"/>
    </g>
    <g transform="matrix(1,0,0,1,-2.40848,-52.5721)">
        <path d="M2100,1800L450,1800L600,1950" style="fill:none;stroke-width:14.58px;stroke:rgb(128,186,142);"/>
    </g>
    <g transform="matrix(-1,0,0,-1,2547.59,3181.13)">
        <path d="M2100,1800L450,1800L600,1950" style="fill:none;stroke-width:14.58px;stroke:rgb(128,186,142);"/>
    </g>
</svg>
